<svg xmlns="http://www.w3.org/2000/svg" width="70.5" height="174.4" viewBox="0 0 70.5 174.4"><title>2103.m10.i006.n020_7</title><g id="Layer_2" data-name="Layer 2"><g id="Layer_1-2" data-name="Layer 1"><path d="M53.3,59.8V52.2a1.3,1.3,0,0,0-2.5,0v7.6l-.3.5a1.6,1.6,0,0,0-.4,1.6,2.1,2.1,0,0,0,3.3.7A2,2,0,0,0,53.3,59.8Z" fill="#797673"/><path d="M43.8,9.8a3.5,3.5,0,0,0-2.7-1.4c-.9,0-2.1.3-2.7-.5s-.1-1.5-.3-2.3a2.1,2.1,0,0,0-1.3-1.3L35.5,4H35l-1.4.3a2.1,2.1,0,0,0-1.3,1.3c-.2.8.2,1.6-.3,2.3s-1.7.5-2.6.5a3.4,3.4,0,0,0-3.3,4.3,53.3,53.3,0,0,0,9.1.5,53.3,53.3,0,0,0,9.1-.5A3.5,3.5,0,0,0,43.8,9.8Z" fill="#797673"/><ellipse cx="35.3" cy="170.9" rx="25.1" ry="3.5" fill="#797673"/><rect x="10.1" y="165.8" width="50.3" height="5.2" fill="#797673"/><ellipse cx="35.3" cy="165.9" rx="25.1" ry="2.7" fill="#a09794"/><rect x="33.5" y="52.1" width="3.5" height="113.35" rx="1" ry="1" fill="#797673"/><path d="M69.9,33.5c-1.1-6.5-4.1-12.8-9.4-16.7s-16.9-5.1-25.2-5-18.6.1-25.2,5S1.8,27,.6,33.5,0,45.9.6,52.1a1.1,1.1,0,0,0,1.1,1H68.8a1.1,1.1,0,0,0,1.1-1C70.5,45.9,71,39.6,69.9,33.5Z" fill="#ffcc7a"/><path d="M70.5,39.3H.1c0,.4,0,.8,0,1.3H70.5C70.5,40.2,70.5,39.7,70.5,39.3Z" fill="#f3f1ea"/><path d="M70.3,47.6H.2v1.3H70.2Z" fill="#f3f1ea"/><path d="M70.5,43.6H0c0,.4,0,.8,0,1.3H70.5C70.5,44.4,70.5,44,70.5,43.6Z" fill="#f3f1ea"/><path d="M33.8,1.2V4.5a1.3,1.3,0,0,0,2.5,0V1.2A1.3,1.3,0,0,0,33.8,1.2Z" fill="#797673"/><path d="M10.7,167c7.9,2.3,16.1,2.8,24.3,2.7s16.8-.4,24.9-2.8a.6.6,0,0,0-.3-1.2c-8,2.3-16.3,2.6-24.6,2.7s-16.2-.4-24-2.7A.6.6,0,0,0,10.7,167Z"/><path d="M34.5,4.6h1a.6.6,0,0,0,0-1.2h-1A.6.6,0,0,0,34.5,4.6Z"/><path d="M33,8.8h4.8a.6.6,0,0,0,0-1.2H33A.6.6,0,0,0,33,8.8Z"/><path d="M34.3,165.6h2.5a.6.6,0,0,0,0-1.2H34.3A.6.6,0,0,0,34.3,165.6Z"/></g></g></svg>